Coordinates
version=1
nRows=9
nColumns=24
inDegrees=yes

Units are S.I. units (second, meters, Newtons, ...)
Angles are in degrees.

endheader
time	pelvis_tilt	pelvis_list	pelvis_rotation	pelvis_tx	pelvis_ty	pelvis_tz	hip_flexion_r	hip_adduction_r	hip_rotation_r	knee_angle_r	ankle_angle_r	subtalar_angle_r	mtp_angle_r	hip_flexion_l	hip_adduction_l	hip_rotation_l	knee_angle_l	ankle_angle_l	subtalar_angle_l	mtp_angle_l	lumbar_extension	lumbar_bending	lumbar_rotation
      7.19000000	      6.75789123	     -0.08028833	      5.26322549	      1.43098361	      0.92176565	     -0.22568009	     11.28056342	      3.18944830	     -8.53805565	      0.99679719	      5.59206502	      0.96738901	      0.00000000	    -18.28655898	      3.10546394	      0.69254196	    -14.69655253	     15.48164496	     -0.07836858	      0.00000000	    -23.58255070	      1.42573894	     -6.46400414
      7.20000000	      7.02802171	     -0.33181024	      5.32486370	      1.44292718	      0.92195706	     -0.22486463	     10.88633518	      3.55302820	     -7.36234393	     -0.01847788	      4.08022165	     -0.10547845	      0.00000000	    -18.50923964	      2.56184147	      0.18135180	    -16.17249532	     14.85579090	      0.67813823	      0.00000000	    -23.63555614	      1.75397458	     -6.36114852
      7.21000000	      7.33437436	     -0.63223063	      5.36343720	      1.45491233	      0.92248088	     -0.22398990	     10.45258403	      3.99117660	     -6.14242470	     -1.02451329	      2.44815074	     -1.24909727	      0.00000000	    -18.61833387	      1.94568209	     -0.45307105	    -17.87469596	     13.90717061	      1.40200199	      0.00000000	    -23.73213070	      2.13129714	     -6.22460725
      7.22000000	      7.68470964	     -0.98091837	      5.35480030	      1.46690902	      0.92334135	     -0.22306231	      9.99601480	      4.49779407	     -5.03032474	     -2.06745151	      0.86155367	     -2.20002079	      0.00000000	    -18.61861252	      1.26607758	     -1.21653242	    -19.80005159	     12.68275964	      2.11339346	      0.00000000	    -23.87492131	      2.55966620	     -6.01588219
      7.23000000	      8.03765797	     -1.35101968	      5.27693394	      1.47885939	      0.92444580	     -0.22207339	      9.57942192	      5.03498698	     -4.07200116	     -3.19886332	     -0.46692411	     -2.87552088	      0.00000000	    -18.46274577	      0.56356059	     -2.09383227	    -21.93740551	     11.10751169	      2.69695745	      0.00000000	    -24.02306303	      2.99776634	     -5.75466278
      7.24000000	      8.36869209	     -1.69450838	      5.15723114	      1.49068282	      0.92569488	     -0.22103238	      9.22750454	      5.54341272	     -3.34562395	     -4.43222410	     -1.34840606	     -3.44118644	      0.00000000	    -18.10667340	     -0.12725608	     -3.04197963	    -24.29881098	      9.10890622	      3.06241393	      0.00000000	    -24.16656259	      3.38213193	     -5.47029030
      7.25000000	      8.69104227	     -2.01527537	      5.02092278	      1.50235002	      0.92706600	     -0.21997898	      8.91173891	      6.01039280	     -3.11217336	     -5.73687227	     -1.72018618	     -3.50658339	      0.00000000	    -17.59183643	     -0.80568346	     -3.92435621	    -26.81637892	      6.67025529	      3.13730634	      0.00000000	    -24.32086767	      3.72470518	     -5.18920314
      7.26000000	      8.94977505	     -2.31223616	      4.80187481	      1.51383031	      0.92836560	     -0.21878590	      8.65113772	      6.45806036	     -2.82226086	     -7.05975928	     -1.64083084	     -3.67617613	      0.00000000	    -16.87398386	     -1.46374700	     -4.84021910	    -29.46833864	      3.93257093	      2.99292161	      0.00000000	    -24.42291550	      3.99589788	     -4.86573693
      7.27000000	      9.12853011	     -2.56311220	      4.58212807	      1.52508537	      0.92956736	     -0.21757832	      8.41934747	      6.84396704	     -2.69399802	     -8.29725121	     -1.14137647	     -3.74677386	      0.00000000	    -15.94858645	     -2.06264838	     -5.53981463	    -32.20626508	      0.85031983	      2.38447264	      0.00000000	    -24.45920573	      4.19175061	     -4.55741482
